<?xml version="1.0" standalone="no"?>
<!DOCTYPE svg PUBLIC "-//W3C//DTD SVG 20010904//EN"
 "http://www.w3.org/TR/2001/REC-SVG-20010904/DTD/svg10.dtd">
<svg version="1.0" xmlns="http://www.w3.org/2000/svg"
 width="400.000000pt" height="400.000000pt" viewBox="0 0 400.000000 400.000000"
 preserveAspectRatio="xMidYMid meet">
<metadata>
Created by potrace 1.11, written by Peter Selinger 2001-2013
</metadata>
<g transform="translate(0.000000,400.000000) scale(0.100000,-0.100000)"
fill="#000000" stroke="none">
<path d="M1835 3594 c-34 -5 -140 -22 -170 -28 -11 -2 -47 -11 -80 -20 -33 -9
-67 -18 -75 -20 -28 -7 -171 -66 -223 -92 -425 -213 -734 -601 -842 -1059 -36
-150 -37 -157 -40 -345 -3 -157 4 -240 28 -361 19 -94 88 -301 108 -323 5 -6
9 -16 9 -23 0 -16 99 -187 148 -256 248 -348 638 -585 1077 -654 77 -12 402
-9 475 5 105 20 110 21 169 38 l56 17 -70 32 c-38 18 -128 61 -200 95 -71 34
-157 75 -190 90 -33 15 -121 57 -195 92 -74 36 -182 87 -240 114 -324 150
-508 319 -643 589 -59 118 -91 219 -122 390 -9 51 -7 257 4 325 52 320 212
587 471 784 122 93 332 188 470 212 14 3 32 7 40 9 33 9 139 18 210 18 75 0
209 -11 221 -19 4 -2 24 -6 45 -10 20 -3 76 -19 123 -36 424 -149 727 -514
798 -963 9 -62 10 -283 0 -348 -14 -92 -49 -217 -62 -217 -7 0 -57 22 -111 49
-55 26 -109 51 -121 55 -26 8 -27 14 -14 49 18 46 23 93 26 223 5 250 -62 430
-240 643 -33 39 -161 138 -228 175 -80 45 -224 93 -307 102 -119 14 -287 6
-345 -16 -14 -5 -25 -8 -25 -6 0 8 -154 -55 -208 -85 -246 -135 -426 -401
-459 -679 -33 -277 47 -523 247 -754 59 -67 189 -151 369 -237 101 -49 185
-89 186 -89 1 0 65 -30 141 -66 77 -37 222 -106 324 -154 102 -48 243 -115
314 -149 70 -33 133 -61 138 -61 15 0 121 73 201 138 l68 55 -83 41 c-46 23
-120 58 -163 78 -44 20 -143 67 -220 103 -275 131 -445 212 -575 272 -41 19
-149 71 -239 115 -150 73 -171 87 -236 152 -81 82 -134 174 -164 287 -27 95
-23 254 7 339 81 230 258 381 497 425 38 7 152 7 185 0 14 -3 38 -8 55 -11 51
-9 162 -60 215 -99 98 -72 172 -174 229 -317 28 -73 35 -308 9 -324 -5 -3 -36
8 -71 24 -34 17 -134 65 -222 107 -90 43 -179 79 -203 82 -152 19 -222 -167
-99 -261 19 -15 36 -26 39 -26 6 0 94 -41 343 -160 61 -29 137 -65 170 -80 33
-15 119 -56 190 -90 72 -34 157 -75 190 -90 33 -15 123 -58 200 -95 194 -93
225 -106 237 -99 17 11 105 202 137 300 61 180 76 288 76 519 -1 195 -18 310
-71 475 -57 175 -178 400 -282 523 -35 41 -188 194 -229 229 -118 99 -350 226
-511 278 -169 54 -280 72 -467 75 -93 1 -183 1 -200 -1z"/>
</g>
</svg>
